<svg width="260" height="41" viewBox="0 0 260 41" fill="none" xmlns="http://www.w3.org/2000/svg">
<path d="M101.119 19.54L99.7025 31.7284C97.2913 33.677 93.3874 35.0143 89.5217 35.0143C83.2449 35.0143 78.3841 31.3463 78.3841 23.6664C78.3841 14.5729 84.1634 7.1605 92.6984 7.1605C96.4875 7.1605 100.047 8.84166 101.999 12.0894L97.2913 15.6809C96.2579 14.1526 94.6121 12.9299 92.354 12.9299C87.7994 12.9299 84.8524 17.9352 84.8524 23.3226C84.8524 27.2962 86.766 29.3595 89.9427 29.3595C91.3589 29.3595 92.6602 29.0156 94.1528 28.0604L94.6504 24.6598H90.1341L90.7848 19.54H101.119Z" fill="white"/>
<path d="M125.262 23.4754C124.228 31.8812 120.363 35.0143 113.703 35.0143C107.465 35.0143 104.709 31.3463 104.709 25.3858C104.709 24.4688 104.785 23.5136 104.9 22.5584L106.776 7.54258H112.861L111.024 22.5202C110.947 23.3226 110.871 24.0867 110.871 24.7745C110.871 27.449 111.751 29.283 114.162 29.283C116.918 29.283 118.602 27.8311 119.138 23.3226L121.09 7.54258H127.214L125.262 23.4754Z" fill="white"/>
<path d="M142.453 34.6704L141.649 29.6651H133.535L131.507 34.6704H125.077L137.324 7.54258H143.218L148.806 34.6704H142.453ZM135.64 24.4688H140.807L139.391 15.4517H139.314L135.64 24.4688Z" fill="white"/>
<path d="M166.751 24.6981V24.7363L171.306 34.6704H164.493L160.742 25.8061H158.637L157.565 34.6704H151.557L154.886 7.54258H164.569C170.004 7.54258 172.262 10.6757 172.262 15.0314C172.262 19.54 170.311 23.0169 166.751 24.6981ZM160.206 12.9299L159.288 20.4187H161.699C164.263 20.4187 165.871 18.4319 165.871 15.7191C165.871 13.7705 164.569 12.9299 163.039 12.9299H160.206Z" fill="white"/>
<path d="M182.813 34.6704H174.431L177.761 7.54258H186.334C193.836 7.54258 197.548 11.9365 197.548 18.814C197.548 28.2132 192.037 34.6704 182.813 34.6704ZM183.54 29.2066C188.592 29.2066 191.195 24.6216 191.195 18.9286C191.195 15.1842 189.472 13.0064 185.645 13.0064H183.081L181.09 29.2066H183.54Z" fill="white"/>
<path d="M206.164 34.6704H199.964L203.255 7.54258H209.494L206.164 34.6704Z" fill="white"/>
<path d="M226.363 34.6704L225.559 29.6651H217.445L215.417 34.6704H208.987L221.234 7.54258H227.128L232.716 34.6704H226.363ZM219.55 24.4688H224.717L223.301 15.4517H223.225L219.55 24.4688Z" fill="white"/>
<path d="M253.876 7.54258H260L256.632 34.6704H250.317L243.581 18.623H243.542L241.552 34.6704H235.467L238.796 7.54258H244.92L251.771 24.0103H251.848L253.876 7.54258Z" fill="white"/>
<path fill-rule="evenodd" clip-rule="evenodd" d="M43.4847 0C43.4295 0 43.3793 0.0279319 43.3533 0.0743824C39.9673 6.10176 35.0849 14.7908 31.4018 21.3364H23.0005C22.8927 21.3364 22.7932 21.3916 22.7399 21.4811L19.2067 27.4144C19.1499 27.5097 19.2221 27.628 19.337 27.628H27.8074C26.8788 29.1456 25.936 30.5033 24.883 31.6141C22.9757 33.6263 20.2699 34.834 16.4956 34.4662C11.0603 33.9366 7.60897 28.9939 7.60897 23.5129C7.60897 20.171 10.1755 15.2172 13.1353 13.1777C16.622 10.775 21.3842 10.1132 26.7574 13.1551C26.8999 13.2358 27.0862 13.1946 27.1728 13.0598L30.4015 8.0283C30.482 7.90276 30.4485 7.73827 30.3239 7.6514C23.3309 2.77393 14.4942 4.04163 8.90682 7.83252C3.53022 11.4804 0.403073 16.6347 0.0306351 23.2905C-0.497428 32.7273 5.83857 40.0705 16.149 40.9313C22.2229 41.4384 26.8968 39.0759 30.1531 35.8975C32.6603 33.4503 34.0494 30.9368 35.4374 28.4254L35.4382 28.4238C36.1619 27.1144 38.4864 23.25 38.4864 23.25L37.2982 27.2643C37.2441 27.4468 37.3879 27.628 37.5866 27.628H49.6104L50.8646 32.3867C50.8813 32.4503 50.9412 32.4949 51.0099 32.4949H57.7924C57.8904 32.4949 57.962 32.4067 57.9376 32.3163L49.2603 0.107392C49.2433 0.044186 49.1836 0 49.1152 0H43.4847ZM47.9522 21.3364L45.2097 10.9312C45.2097 10.9312 42.4977 15.7912 39.7526 20.7035L39.5072 21.1238C39.4515 21.2191 39.5237 21.3364 39.6381 21.3364H47.9522Z" fill="#EFEFEF"/>
</svg>
