<?xml version="1.0" encoding="UTF-8"?><svg id="Layer_2" xmlns="http://www.w3.org/2000/svg" viewBox="0 0 310.228086143993096 66.834106445310681"><defs><style>.cls-1{fill:#08e8ff;}.cls-1,.cls-2{stroke:#000;stroke-miterlimit:10;stroke-width:5px;}</style></defs><g id="Layer_1-2"><path class="cls-2" d="m59.218342644106997,10.534851074217841c-.79901123046875-1.1322021484375-1.786865234375-2.120056152342841-2.9190673828125-2.9190673828125-2.177185058592841-3.08538818359375-5.76171875-5.115783691405341-9.80328369140625-5.115783691405341H14.500019890201656C7.899983269106997,2.5,2.500019890201656,7.900024414061591,2.500019890201656,14.5v31.996032714842841c0,4.041564941407159,2.030334472655341,7.626098632811591,5.11572265625,9.803283691405341.798950195311591,1.13226318359375,1.786804199217841,2.12005615234375,2.919006347655341,2.91900634765625,2.177185058594659,3.08544921875,5.76177978515625,5.11578369140625,9.8033447265625,5.11578369140625h31.99603271484375c6.599975585938409,0,12-5.39996337890625,12-11.999999999999091v-31.995971679686591c0-4.041564941407159-2.030395507811591-7.626098632813409-5.11578369140625-9.803283691407159Z"/><rect class="cls-1" x="2.5" y="2.500031950738958" width="55.995990914111644" height="55.995990914111644" rx="11.999999999999091" ry="11.999999999999091"/><path d="m106.654790485676131,39.578509678960472c0-1.164025762719575-.570021445982093-1.915203536012086-1.710064337944459-2.253533319877533l-11.687366837603804-3.662526976738263c-1.44496796299245-.451391888854232-2.660813857164612-1.230835188393939-3.648822479163755-2.338329898619122-.988436887547323-1.108351241323362-1.48222706577144-2.582441261661188-1.48222706577144-4.423126592112567v-.282655262470143c0-5.634261565244742,2.850535495457734-8.451392347865294,8.551606486376841-8.451392347865294h7.126338738647974c5.701070990917287,0,8.55160648637775,2.83083528019597,8.55160648637775,8.491649309489731v.566167056039376c0,.94389727043108-.475803025158712,1.414989374548895-1.425267747729777,1.414989374548895h-3.420556941441646c-.950321253669244,0-1.425267747729777-.467665979724188-1.425267747729777-1.403854470269835v-.280942200273785c0-2.057387698345337-1.045824471139895-3.086938078616186-3.135760351224235-3.086938078616186h-5.985867581134698c-.722483981496225,0-1.331049326905486.244967894141155-1.824411239581423.733190620226196-.494218443775026.488222726085041-.741327665661629,1.089507557158868-.741327665661629,1.802997962121481,0,1.164025762719575.570449711531182,1.915203536012086,1.710492603495368,2.253533319878443l11.687366837601985,3.661670445638265c1.443683166345181.451391888855142,2.659529060518253,1.231691719493028,3.648394213614665,2.339186429718211.988008621999143,1.108351241323362,1.482227065773259,2.582441261661188,1.482227065773259,4.423126592112567v.563597462743928c0,5.635118096342012-2.850535495459553,8.452248878966202-8.55160648637775,8.452248878966202h-8.266381630612159c-5.701070990918197,0-8.55160648637775-2.830835280198698-8.55160648637775-8.493362371688818v-.565310524941196c0-.943040739331991.474946494060532-1.415845905647075,1.425267747729777-1.415845905647075h3.420556941440736c.949464722571065,0,1.425267747729777.469379041920547,1.425267747729777,1.404711001368014v.280085669175605c0,2.059957291639876,1.044967940042625,3.088651140812544,3.135760351225144,3.088651140812544h6.841113882882382c.874089985911269,0,1.567880175612117-.253533205124768,2.080942303550728-.760599615374304s.769593191907916-1.193147820064951.769593191907916-2.057387698345337Z"/><path d="m145.992265976123235,46.387075380104761c0,.950749519217425-.476231290707801,1.425267747728867-1.425267747729777,1.425267747728867h-3.420985206989826c-.949892988121064,0-1.425267747729777-.474518228511442-1.425267747729777-1.425267747728867v-18.243255864720595c0-1.140042891964185-.333190597275461-2.04282666967265-.997858729630934-2.708351333125393-.664668132354564-.664668132354564-1.567451910063028-.997858729630025-2.707494802026304-.997858729630025h-9.691649378342845v21.949465927476012c0,.950749519217425-.476231290706892,1.425267747728867-1.425267747728867,1.425267747728867h-3.420985206990736c-.950749519218334,0-1.425267747728867-.474518228511442-1.425267747728867-1.425267747728867V9.330113939134208c0-.949892988119245.474518228510533-1.425267747729777,1.425267747728867-1.425267747729777h3.420985206990736c.949036457021975,0,1.425267747728867.475374759610531,1.425267747728867,1.425267747729777v9.406424522575435h10.54646741454053c6.080514267507169,0,9.122056197908933,3.041541930401763,9.122056197908933,9.122056197908933v18.528480720486186Z"/><path d="m160.244086922320093,12.751099146123124c0,.949892988121974-.476231290707801,1.425267747730686-1.425267747728867,1.425267747730686h-3.420985206990736c-.949892988119245,0-1.425267747728867-.475374759608712-1.425267747728867-1.425267747730686v-3.420985206988917c0-.949892988119245.475374759609622-1.425267747729777,1.425267747728867-1.425267747729777h3.420985206990736c.949036457021066,0,1.425267747728867.475374759610531,1.425267747728867,1.425267747729777v3.420985206988917Zm0,33.635976233981637c0,.950749519217425-.476231290707801,1.425267747728867-1.425267747728867,1.425267747728867h-3.420985206990736c-.949892988119245,0-1.425267747728867-.474518228511442-1.425267747728867-1.425267747728867v-26.225269170665342c0-.949036457021975.475374759609622-1.425267747729777,1.425267747728867-1.425267747729777h3.420985206990736c.949036457021066,0,1.425267747728867.476231290707801,1.425267747728867,1.425267747729777v26.225269170665342Z"/><path d="m187.609398984949621,39.260736641455878c0-.949892988120155.474518228509623-1.425267747728867,1.425267747728867-1.425267747728867h3.420128675892556c.949892988119245,0,1.425267747728867.475374759608712,1.425267747728867,1.425267747728867,0,2.850535495458644-.769164926357917,5.036402858563633-2.308351310175567,6.555889027116791-1.540042914914011,1.521199230749517-3.811563387858769,2.280942315028369-6.812848356634277,2.280942315028369h-7.696788450179156c-6.081370798607168,0-9.122056197909842-3.011563341960937-9.122056197909842-9.035546556972804v-11.859529588379701c0-6.023983215013686,3.040685399302674-9.035546556970985,9.122056197909842-9.035546556970985h7.696788450179156c6.080514267507169,0,9.121199666809844,2.991006595596446,9.121199666809844,8.972163255689338v6.728908308992686c0,.935331959446557-.475374759609622,1.402141408072566-1.425267747728867,1.402141408072566h-18.243255864719686v3.420128675892556c0,1.140899423063274.332334066177282,2.043683200770829.997858729630025,2.708351333125393.664668132354564.665524663452743,1.567451910063028.997858729630025,2.707494802027213.997858729630025h6.556745558214971c2.08993588008525,0,3.135760351226054-1.044967940041715,3.135760351226054-3.135760351224235Zm-13.397859441098262-9.406424522576344h13.397859441098262v-2.44882241031155c0-1.088651026060688-.33319059727728-1.950321311045627-.997858729631844-2.585010854956636-.665524663452743-.634689543911009-1.568308441161207-.952462581415602-2.708351333125393-.952462581415602h-5.986295846683788c-1.140042891964185,0-2.04282666967265.317773037504594-2.707494802027213.952462581415602-.665524663452743.634689543911009-.997858729630025,1.496359828895947-.997858729630025,2.585010854956636v2.44882241031155Z"/><path d="m208.132740633595859,46.387075380104761c0,.950749519217425-.476231290707801,1.425267747728867-1.425267747728867,1.425267747728867h-3.420985206990736c-.950749519219244,0-1.425267747730686-.474518228511442-1.425267747730686-1.425267747728867V9.330113939134208c0-.949892988119245.474518228511442-1.425267747729777,1.425267747730686-1.425267747729777h3.420985206990736c.949036457021066,0,1.425267747728867.475374759610531,1.425267747728867,1.425267747729777v37.056961440970554Z"/><path d="m235.782421020891888,18.45217013704314v-9.159743566238831c0-.924197055168406.474518228509623-1.387580379399878,1.425267747728867-1.387580379399878h3.420128675892556c.949892988119245,0,1.425267747728867.475374759610531,1.425267747728867,1.425267747729777v37.056961440970554c0,.950749519217425-.475374759609622,1.425267747728867-1.425267747728867,1.425267747728867h-3.420128675892556c-.950749519219244,0-1.425267747728867-.496788037068654-1.425267747728867-1.49207717340505v-1.492077173404141h-.285224855766501c-.304925071028265.618415453041052-.722912247045315,1.162312700522307-1.254818059149329,1.634261335738302-.455674544346039.400000022949826-1.044967940040806.772591050752453-1.767023655987941,1.117773083406064-.722055715947135.344325501555431-1.615417651573807.517344783432236-2.679229275780017.517344783432236h-4.561028098954921c-6.081370798605349,0-9.122056197909842-3.040685399305403-9.122056197909842-9.122056197910752v-11.402141981837303c0-6.080514267507169,3.040685399304493-9.121199666809844,9.122056197909842-9.121199666809844h10.547323945638709Zm0,5.701070990918197h-9.692505909441024c-1.140042891964185,0-2.04282666967265.333190597275461-2.707494802027213.997002198531845-.665524663452743.665524663452743-.997858729630025,1.568308441161207-.997858729630025,2.708351333125393v10.831692270306121c0,1.140899423063274.332334066177282,2.043683200770829.997858729630025,2.708351333125393.664668132354564.665524663452743,1.567451910063028.997858729630025,2.707494802027213.997858729630025h4.846252954719603c1.444111431894271,0,2.612419850105653-.446252702263337,3.505781785732324-1.339614637889099.893361935626672-.892505404528492,1.340471168989097-2.061670353838053,1.340471168989097-3.506638316830504v-13.397002909999173Z"/><path d="m256.590130994206447,12.751099146123124c0,.949892988121974-.476231290707801,1.425267747730686-1.425267747730686,1.425267747730686h-3.420985206990736c-.949892988119245,0-1.425267747728867-.475374759608712-1.425267747728867-1.425267747730686v-3.420985206988917c0-.949892988119245.475374759609622-1.425267747729777,1.425267747728867-1.425267747729777h3.420985206990736c.949036457022885,0,1.425267747730686.475374759610531,1.425267747730686,1.425267747729777v3.420985206988917Zm0,33.635976233981637c0,.950749519217425-.476231290707801,1.425267747728867-1.425267747730686,1.425267747728867h-3.420985206990736c-.949892988119245,0-1.425267747728867-.474518228511442-1.425267747728867-1.425267747728867v-26.225269170665342c0-.949036457021975.475374759609622-1.425267747729777,1.425267747728867-1.425267747729777h3.420985206990736c.949036457022885,0,1.425267747730686.476231290707801,1.425267747730686,1.425267747729777v26.225269170665342Z"/><path d="m263.716469732854421,26.148102056123207c-.950749519219244,0-1.425267747730686-.474518228510533-1.425267747730686-1.425267747728867v-2.850535495459553c0-.949036457021975.474518228511442-1.425267747729777,1.425267747730686-1.425267747729777h3.420128675890737v-3.990578387422829c0-5.701070990918197,2.850535495459553-8.55160648637775,8.55160648637866-8.55160648637775h3.991434918520099c.949036457022885,0,1.425267747730686.475374759610531,1.425267747730686,1.425267747729777v3.135760351224235c0,.949892988120155-.476231290707801,1.425267747729777-1.425267747730686,1.425267747729777h-3.135760351224235c-2.09079241118161,0-3.135760351224235,1.045824471140804-3.135760351224235,3.135760351225144v3.420128675891647h4.846252954719603c.949036457022885,0,1.425267747728867.476231290707801,1.425267747728867,1.425267747729777v2.850535495459553c0,.950749519218334-.476231290705982,1.425267747728867-1.425267747728867,1.425267747728867h-4.846252954719603v20.238973323981554c0,.950749519217425-.475374759609622,1.425267747728867-1.425267747730686,1.425267747728867h-3.420985206988917c-.949892988121064,0-1.425267747730686-.474518228511442-1.425267747730686-1.425267747728867v-20.238973323981554h-3.420128675890737Z"/><path d="m302.938741790566382,20.44703106520501c.304068539930086-.949036457022885.874518251461268-1.425267747729777,1.710492603495368-1.425267747729777h4.561028098954921c.949892988119245,0,1.235117843885746.476231290706892.854818036197685,1.425267747729777l-11.116917126071712,28.505354954592804c-1.292505427478318,3.307066570901952-2.831691811294149,5.795289411739759-4.617559151447495,7.468951178004318-1.786723871253344,1.6719487040682-4.047965971016311,2.5079230561023-6.784582830388899,2.5079230561023h-1.425267747728867c-.949892988121064,0-1.425267747730686-.475374759611441-1.425267747730686-1.425267747730686v-3.135760351226054c0-.949892988118336.475374759609622-1.425267747726139,1.425267747730686-1.425267747726139h1.425267747728867c2.242398415599382,0,3.952891019092931-1.614561120476537,5.131477810486103-4.844539892525063l-10.83254880140521-27.651393449491479c-.380299807686242-.949036457022885-.095074951921561-1.425267747729777.855674567297683-1.425267747729777h4.560171567856742c.835974352032281,0,1.406424063563463.476231290706892,1.710492603493549,1.425267747729777l6.841113882883292,18.529337251583456h.285224855764682l6.841113882883292-18.529337251583456Z"/><path d="m40.16692764626805,21.002087091270369c-.023857017806222-.032778543371933-.049537625507583-.064189394321147-.076920573776079-.094082203681864-.029628485826834-.026982825485902-.060605264181504-.052442759410042-.092813935710183-.076282802310743-5.265751622001517-5.194173293623862-13.727562784353722-5.194173293623862-18.993314406355239,0-.032208671528679.023840042900702-.063185449884259.049299976824841-.09281151072264.076282802310743-.027382948269405.029892809360717-.053063555970766.061303660309932-.076918148790355.094082203681864-5.195696185184715,5.265623097713615-5.195696185184715,13.728964426587481,0,18.994585099313554.023165896635874.031597574915395.047992909067034.061939006791363.074376762871907.09090304629899.028539666858705.025961906142584.058461576059017.050366970911455.089632353338857.07310364492696,5.266229344354542,5.199045091629159,13.733443376768264,5.199045091629159,18.999675146109439,0,.031170777280749-.022736674015505.061090261493518-.047141738784376.089632353339766-.07310364492696.026383853804873-.028964039507628.051210866236033-.059305471383595.074374337885274-.09090304629899,5.195698610171348-5.265620672726072,5.195698610171348-13.728962001599939,0-18.994585099313554h.005087621809253Zm-.906503626983067,16.682559260455491l-2.049482243636703-2.049482243637613c.901052257189804-1.171365509358111,1.47749096309235-2.559510267524274,1.671242539497143-4.024590149386313h2.898770737653649c-.218214840852852,2.230100092816429-1.095691378677657,4.344678675747673-2.520531033514089,6.074072393023926Zm-20.040307204874807-6.074072393023926h2.898773162639372c.193751576405703,1.465079881862039.77019028230734,2.853224640028202,1.671244964482867,4.024590149386313l-2.049482243635794,2.049482243637613c-1.424842079823065-1.729393717276253-2.302318617646961-3.843972300207497-2.520533458500722-6.074072393023926h-.000002424985723Zm2.520533458499813-8.29964261094301l2.049482243635794,2.050117590116315c-.901054682175527,1.171365509358111-1.477490963090531,2.559510267525184-1.671244964481957,4.024590149388132h-2.898773162640282c.218316690287793-2.230267416890456,1.095776253207077-4.345020598854717,2.520533458499813-6.074707739504447h.000002424986633Zm8.759885660694636,13.42525425947133c-3.445549432905864.000349198065123-6.2390030041297-2.792532076330644-6.239352202194823-6.238081509235599-.000351623051756-3.445549432904045,2.792532076331554-6.23900300412879,6.238081509235599-6.239352202193913,3.445549432904045-.000351623051756,6.23900300412879,2.792532076331554,6.239352202194823,6.238081509235599v.001270692958315c-.003855728635244,3.443599743708546-2.794481765528872,6.234225780599445-6.238081509235599,6.238081509235599Zm5.137055160120326-12.948484926292622c-1.17136550935993-.901054682176436-2.559510267527003-1.477490963090531-4.024590149389041-1.671244964483776v-2.899408509119894c2.230250441984936.218840487386842,4.344916324432234,1.096481924297223,6.074707739504447,2.521168804980334l-2.050117590115406,2.049484668623336Zm-6.249525020826695-1.671244964483776c-1.465079881862039.193751576405703-2.853224640028202.77019028230734-4.024590149387222,1.671244964483776l-2.050117590115406-2.049482243636703c1.729791415070395-1.424686880682202,3.844457297519511-2.302328317594402,6.074707739502628-2.521168804979425v2.899406084132352Zm-4.025225495867744,15.092049373613008c1.171818981847537.900683659231618,2.56006558944955,1.477073865401508,4.025225495867744,1.671242539497143v2.89877073765183c-2.230218917158709-.218505839239697-4.344918749417957-1.095943577278376-6.074707739502628-2.52053103351227l2.049482243634884-2.049482243636703Zm6.250160367305398,1.671242539497143c1.465162331405736-.194168674095636,2.853404089035394-.770558880265526,4.025225495867744-1.671242539497143l2.049482243636703,2.049482243636703c-1.729786565098948,1.424587456233894-3.844486397359105,2.302025194272574-6.074707739504447,2.52053103351227v-2.89877073765183Zm7.269178520836249-9.494115817261445c-.193751576405703-1.465079881862039-.77019028230734-2.853222215041569-1.671242539497143-4.024590149386313l2.049482243637613-2.050117590116315c1.424757205292735,1.729689565636363,2.302214343224477,3.844440322613991,2.52053103351318,6.074707739502628h-2.898770737653649Z"/><path d="m30.500538358590347,27.818016223600353c-1.480175423215769,0-2.680092724367569,1.199919726137523-2.680090299380936,2.680095149355111,0,1.480175423215769,1.199919726138432,2.680090299381845,2.680095149354202,2.680090299381845,1.480172998229136,0,2.680090299380936-1.199919726139342,2.680090299380936-2.680092724368478-.001401642233759-1.47959342644117-1.200499297925489-2.678693507121352-2.680095149354202-2.680092724368478Z"/></g></svg>